<?xml version="1.0" encoding="UTF-8" standalone="no"?>
<!-- Created with Inkscape (http://www.inkscape.org/) -->
<svg
   xmlns:dc="http://purl.org/dc/elements/1.1/"
   xmlns:cc="http://web.resource.org/cc/"
   xmlns:rdf="http://www.w3.org/1999/02/22-rdf-syntax-ns#"
   xmlns:svg="http://www.w3.org/2000/svg"
   xmlns="http://www.w3.org/2000/svg"
   xmlns:xlink="http://www.w3.org/1999/xlink"
   xmlns:sodipodi="http://sodipodi.sourceforge.net/DTD/sodipodi-0.dtd"
   xmlns:inkscape="http://www.inkscape.org/namespaces/inkscape"
   width="109.57157"
   height="112.95969"
   id="svg2"
   sodipodi:version="0.32"
   inkscape:version="0.43+devel"
   version="1.0"
   sodipodi:docbase="/home/moyogo/Desktop"
   sodipodi:docname="Univeristé de Kinshasa - Blason.svg">
  <defs
     id="defs4">
    <marker
       inkscape:stockid="Arrow1Send"
       orient="auto"
       refY="0"
       refX="0"
       id="Arrow1Send"
       style="overflow:visible">
      <path
         id="path2941"
         d="M 0,0 L 5,-5 L -12.5,0 L 5,5 L 0,0 z "
         style="fill-rule:evenodd;stroke:black;stroke-width:1pt;marker-start:none"
         transform="matrix(-0.2,0,0,-0.2,-1.2,0)" />
    </marker>
    <marker
       inkscape:stockid="Arrow1Mend"
       orient="auto"
       refY="0"
       refX="0"
       id="Arrow1Mend"
       style="overflow:visible">
      <path
         id="path2947"
         d="M 0,0 L 5,-5 L -12.5,0 L 5,5 L 0,0 z "
         style="fill-rule:evenodd;stroke:black;stroke-width:1pt;marker-start:none"
         transform="matrix(-0.4,0,0,-0.4,-4,0)" />
    </marker>
    <marker
       inkscape:stockid="Arrow1Lend"
       orient="auto"
       refY="0"
       refX="0"
       id="Arrow1Lend"
       style="overflow:visible">
      <path
         id="path2953"
         d="M 0,0 L 5,-5 L -12.5,0 L 5,5 L 0,0 z "
         style="fill-rule:evenodd;stroke:black;stroke-width:1pt;marker-start:none"
         transform="matrix(-0.8,0,0,-0.8,-10,0)" />
    </marker>
    <marker
       inkscape:stockid="Arrow1Lstart"
       orient="auto"
       refY="0"
       refX="0"
       id="Arrow1Lstart"
       style="overflow:visible">
      <path
         id="path2956"
         d="M 0,0 L 5,-5 L -12.5,0 L 5,5 L 0,0 z "
         style="fill-rule:evenodd;stroke:black;stroke-width:1pt;marker-start:none"
         transform="matrix(0.8,0,0,0.8,10,0)" />
    </marker>
  </defs>
  <sodipodi:namedview
     id="base"
     pagecolor="#ffffff"
     bordercolor="#666666"
     borderopacity="1.0"
     gridtolerance="10000"
     guidetolerance="10"
     objecttolerance="10"
     inkscape:pageopacity="0.0"
     inkscape:pageshadow="2"
     inkscape:zoom="2.8"
     inkscape:cx="135.24372"
     inkscape:cy="31.969937"
     inkscape:document-units="px"
     inkscape:current-layer="layer1"
     inkscape:window-width="914"
     inkscape:window-height="624"
     inkscape:window-x="356"
     inkscape:window-y="25" />
  <metadata
     id="metadata7">
    <rdf:RDF>
      <cc:Work
         rdf:about="">
        <dc:format>image/svg+xml</dc:format>
        <dc:type
           rdf:resource="http://purl.org/dc/dcmitype/StillImage" />
      </cc:Work>
    </rdf:RDF>
  </metadata>
  <g
     inkscape:label="Layer 1"
     inkscape:groupmode="layer"
     id="layer1"
     transform="translate(-4.499917,-18.65625)">
    <path
       style="opacity:1;fill:navy;fill-opacity:1;stroke:black;stroke-width:1;stroke-miterlimit:4;stroke-dasharray:none;stroke-dashoffset:0;stroke-opacity:1"
       d="M 19.28125,19.15625 L 19.28125,70.6875 C 19.192745,71.828363 19.15625,72.991583 19.15625,74.15625 C 19.15625,97.407088 37.124571,116.28125 59.28125,116.28125 C 80.521239,116.28125 98.265898,98.917621 99.669643,77 L 99.65625,77 L 99.65625,19.15625 L 19.28125,19.15625 z "
       id="path1884"
       sodipodi:nodetypes="ccsscccc" />
    <path
       style="opacity:1;fill:yellow;fill-opacity:1;stroke:none;stroke-width:0.93900001;stroke-miterlimit:4;stroke-dasharray:none;stroke-dashoffset:0;stroke-opacity:1"
       d="M 60.875,19.15625 L 60.875,116.21875 C 81.37994,115.37025 98.291515,98.363026 99.65974,77 L 99.65625,77 L 99.65625,19.15625 L 60.875,19.15625 z "
       id="rect3906"
       sodipodi:nodetypes="cccccc" />
    <path
       style="fill:red;fill-opacity:0.75;fill-rule:evenodd;stroke:none;stroke-width:1px;stroke-linecap:butt;stroke-linejoin:miter;stroke-opacity:1"
       d="M 98.8125,19.15625 L 60.875,116.21875 C 81.37994,115.37025 98.284677,98.363026 99.652902,77 L 99.65625,77 L 99.65625,19.15625 L 98.8125,19.15625 z "
       id="path4802"
       sodipodi:nodetypes="cccccc" />
    <path
       style="opacity:1;fill:none;fill-opacity:1;stroke:black;stroke-width:1.00021303;stroke-miterlimit:4;stroke-dasharray:none;stroke-dashoffset:0;stroke-opacity:0"
       d="M -51.428572,70.576469 C -51.428572,104.09076 -25.508572,131.29076 6.4285712,131.29076 C 38.365714,131.29076 64.285715,104.09076 64.285715,70.576469"
       id="devise"
       sodipodi:nodetypes="css"
       transform="matrix(0.9388,0,0,0.9388,53.25056,7.89067)" />
    <path
       sodipodi:type="star"
       style="opacity:1;fill:yellow;fill-opacity:1;stroke:none;stroke-width:1;stroke-miterlimit:4;stroke-dasharray:1, 2;stroke-dashoffset:0;stroke-opacity:1"
       id="path1888"
       sodipodi:sides="5"
       sodipodi:cx="40"
       sodipodi:cy="30.219324"
       sodipodi:r1="8.2452831"
       sodipodi:r2="4.1226416"
       sodipodi:arg1="-1.5707963"
       sodipodi:arg2="-0.9424778"
       inkscape:flatsided="false"
       inkscape:rounded="0"
       inkscape:randomized="0"
       d="M 40,21.974041 L 42.423228,26.884037 L 47.84173,27.671392 L 43.920865,31.49329 L 44.846456,36.889898 L 40,34.341966 L 35.153544,36.889898 L 36.079135,31.49329 L 32.15827,27.671391 L 37.576772,26.884037 L 40,21.974041 z "
       transform="matrix(1.009314,0,0,0.722467,-1.540298e-2,7.454058)" />
    <path
       transform="matrix(0.865837,0,0,0.726543,-4.896113,24.29839)"
       d="M 40,21.974041 L 42.423228,26.884037 L 47.84173,27.671392 L 43.920865,31.49329 L 44.846456,36.889898 L 40,34.341966 L 35.153544,36.889898 L 36.079135,31.49329 L 32.15827,27.671391 L 37.576772,26.884037 L 40,21.974041 z "
       inkscape:randomized="0"
       inkscape:rounded="0"
       inkscape:flatsided="false"
       sodipodi:arg2="-0.9424778"
       sodipodi:arg1="-1.5707963"
       sodipodi:r2="4.1226416"
       sodipodi:r1="8.2452831"
       sodipodi:cy="30.219324"
       sodipodi:cx="40"
       sodipodi:sides="5"
       id="path1890"
       style="opacity:1;fill:yellow;fill-opacity:1;stroke:none;stroke-width:1;stroke-miterlimit:4;stroke-dasharray:1, 2;stroke-dashoffset:0;stroke-opacity:1"
       sodipodi:type="star" />
    <path
       sodipodi:type="star"
       style="opacity:1;fill:yellow;fill-opacity:1;stroke:none;stroke-width:1;stroke-miterlimit:4;stroke-dasharray:1, 2;stroke-dashoffset:0;stroke-opacity:1"
       id="path1892"
       sodipodi:sides="5"
       sodipodi:cx="40"
       sodipodi:cy="30.219324"
       sodipodi:r1="8.2452831"
       sodipodi:r2="4.1226416"
       sodipodi:arg1="-1.5707963"
       sodipodi:arg2="-0.9424778"
       inkscape:flatsided="false"
       inkscape:rounded="0"
       inkscape:randomized="0"
       d="M 40,21.974041 L 42.423228,26.884037 L 47.84173,27.671392 L 43.920865,31.49329 L 44.846456,36.889898 L 40,34.341966 L 35.153544,36.889898 L 36.079135,31.49329 L 32.15827,27.671391 L 37.576772,26.884037 L 40,21.974041 z "
       transform="matrix(0.865837,0,0,0.726543,16.34346,24.29839)" />
    <path
       id="path2977"
       style="fill:white;fill-opacity:1;fill-rule:evenodd;stroke:black;stroke-width:1.0334717px;stroke-linecap:butt;stroke-linejoin:miter;stroke-opacity:1"
       d="M 39.526681,72.88188 C 39.526681,72.88188 41.211933,70.208711 49.047492,70.386923 C 56.883051,70.565133 59.749719,73.238302 59.749719,73.238302 C 59.749719,73.238302 59.749719,62.946605 59.767812,59.527505 C 59.785904,59.538971 56.919235,56.865802 49.083676,56.687592 C 41.248117,56.50938 39.145893,59.182548 39.526681,59.182548 C 39.907469,59.182548 37.805245,56.50938 29.969686,56.687592 C 22.134127,56.865802 19.267458,59.538971 19.28555,59.527505 C 19.303643,62.946605 19.303643,73.238302 19.303643,73.238302 C 19.303643,73.238302 22.170311,70.565133 30.00587,70.386923 C 37.841429,70.208711 39.526681,72.88188 39.526681,72.88188 z "
       sodipodi:nodetypes="csccscsccsc" />
    <text
       xml:space="preserve"
       style="font-size:9px;font-style:normal;font-variant:normal;font-weight:bold;font-stretch:normal;text-align:start;line-height:100%;writing-mode:lr-tb;text-anchor:start;fill:black;fill-opacity:1;stroke:none;stroke-width:1px;stroke-linecap:butt;stroke-linejoin:miter;stroke-opacity:1;font-family:FreeSerif;opacity:0"
       id="text2992"
       sodipodi:linespacing="100%"><textPath
         xlink:href="#devise"
         id="textPath1893"><tspan
   id="tspan2996"
   style="font-size:9px;font-style:normal;font-variant:normal;font-weight:bold;font-stretch:normal;text-align:start;line-height:100%;writing-mode:lr-tb;text-anchor:start;font-family:FreeSerif">SCIENTIA SPLENDET ET CONSCIENTIA</tspan></textPath></text>
    <g
       id="g2969">
      <path
         style="fill:black;fill-opacity:1;fill-rule:evenodd;stroke:none;stroke-width:3.29999995;stroke-linecap:butt;stroke-linejoin:miter;stroke-miterlimit:4;stroke-dasharray:none;stroke-opacity:1"
         d="M 38.875,40.75 L 38.875,96.46875 L 42.1875,96.46875 L 42.1875,40.75 L 38.875,40.75 z "
         id="path1894" />
      <path
         style="fill-rule:evenodd;stroke:black;stroke-width:0.65999999pt;marker-start:none"
         d="M 40.535714,44.715038 L 43.835714,44.711467 L 40.535714,36.465038 L 37.235714,44.711467 L 40.535714,44.715038 z "
         id="path2975"
         sodipodi:nodetypes="ccccc" />
    </g>
    <path
       sodipodi:nodetypes="ccsscccc"
       id="path5692"
       d="M 19.28125,19.15625 L 19.28125,70.6875 C 19.192745,71.828363 19.15625,72.991583 19.15625,74.15625 C 19.15625,97.407088 37.124571,116.28125 59.28125,116.28125 C 80.521239,116.28125 98.265898,98.917621 99.669643,77 L 99.65625,77 L 99.65625,19.15625 L 19.28125,19.15625 z "
       style="opacity:1;fill:none;fill-opacity:1;stroke:black;stroke-width:1;stroke-miterlimit:4;stroke-dasharray:none;stroke-dashoffset:0;stroke-opacity:1" />
    <path
       style="font-size:9px;font-style:normal;font-variant:normal;font-weight:bold;font-stretch:normal;text-align:start;line-height:100%;writing-mode:lr-tb;text-anchor:start;fill:black;fill-opacity:1;stroke:none;stroke-width:1px;stroke-linecap:butt;stroke-linejoin:miter;stroke-opacity:1;font-family:FreeSerif"
       d="M 11.228996,76.257778 C 11.241871,76.56951 11.18254,76.950284 11.051004,77.400101 C 11.008737,77.539961 10.988844,77.639868 10.991327,77.69982 C 10.996523,77.825709 11.078048,77.909414 11.235903,77.950937 C 11.254377,77.96218 11.278728,77.970181 11.308956,77.974941 L 11.320103,78.244711 L 9.3687681,78.325339 L 9.3583645,78.073554 C 10.269929,77.753644 10.790395,77.269745 10.919763,76.621855 C 10.945025,76.506712 10.955182,76.389192 10.950234,76.269297 C 10.930412,75.789704 10.737808,75.488399 10.372424,75.365381 C 10.262777,75.327874 10.142012,75.311846 10.01013,75.317297 C 9.7343603,75.32869 9.5143827,75.454879 9.3501961,75.695864 C 9.2534806,75.825966 9.1475045,76.022509 9.0322675,76.285493 L 8.4304468,77.634488 C 8.2489609,78.038321 7.9341299,78.339575 7.4859529,78.538252 C 7.2736025,78.631093 7.0565234,78.682098 6.8347148,78.691268 C 6.1692814,78.718759 5.6514435,78.466923 5.2811997,77.93576 C 5.0133135,77.556493 4.8679762,77.091096 4.8451872,76.53957 C 4.831068,76.19786 4.8896554,75.799101 5.0209495,75.343294 C 5.068463,75.185197 5.0906097,75.067182 5.0873897,74.989249 C 5.0824354,74.869351 4.9950392,74.78889 4.8252009,74.747868 C 4.8069686,74.742615 4.7887363,74.737363 4.7705038,74.732112 L 4.7597286,74.471335 L 6.9808333,74.37956 L 6.9916085,74.640337 C 6.0598233,74.907032 5.4821835,75.315227 5.2586874,75.864924 C 5.171191,76.072711 5.1326448,76.302498 5.1430486,76.554286 C 5.1638557,77.057853 5.3608187,77.392006 5.7339383,77.556746 C 5.8807871,77.622736 6.0411376,77.652141 6.2149904,77.644961 C 6.5027432,77.633068 6.7317132,77.506507 6.9019011,77.265279 C 7.0038619,77.11694 7.1207131,76.892925 7.252455,76.593233 L 7.515315,75.978858 C 7.876791,75.135214 8.3210822,74.624437 8.84819,74.446524 C 8.996324,74.398367 9.1543214,74.370821 9.3221824,74.363885 C 10.065543,74.33317 10.605106,74.602123 10.940873,75.170747 C 11.115362,75.469796 11.211403,75.83214 11.228996,76.257778 M 5.8725793,82.933823 C 5.9563485,83.540058 6.3216144,84.101343 6.9683782,84.61768 C 7.0503751,84.685085 7.1450822,84.756796 7.2524998,84.832814 L 7.066575,85.131071 C 6.6986156,84.879059 6.4445252,84.684003 6.3043029,84.545902 C 5.808397,84.069291 5.5119896,83.48032 5.4150795,82.778988 C 5.2820328,81.816134 5.4894525,80.994005 6.0373392,80.312599 C 6.5442461,79.685309 7.2375205,79.310891 8.1171646,79.189342 C 9.0384072,79.062045 9.8465957,79.256248 10.541732,79.771953 C 11.218206,80.284177 11.61681,80.977138 11.737544,81.850838 C 11.793384,82.254995 11.75394,82.714721 11.619211,83.230017 C 11.559617,83.456299 11.535983,83.614018 11.548309,83.703175 C 11.567192,83.839872 11.684247,83.941809 11.899473,84.008987 C 11.930827,84.016762 11.968541,84.026694 12.012616,84.03878 L 12.045878,84.279493 L 9.9597003,84.56776 L 9.9289025,84.344878 C 10.873594,83.729775 11.386132,83.07748 11.466518,82.387992 C 11.478982,82.259068 11.476594,82.132201 11.459354,82.00739 C 11.345191,81.181238 10.718431,80.743913 9.5790741,80.695413 C 9.2312549,80.676845 8.8404091,80.697538 8.4065354,80.757493 C 6.5521536,81.013729 5.7075025,81.739172 5.8725793,82.933823 M 7.0993661,86.3642 L 11.34888,85.406929 C 11.618127,85.346276 11.77263,85.213066 11.812389,85.0073 C 11.834157,84.885539 11.826134,84.699761 11.788321,84.449964 L 12.00782,84.400519 L 12.700062,87.473514 L 12.480562,87.52296 C 12.36806,87.105475 12.219976,86.871293 12.036311,86.820414 C 11.94381,86.792046 11.82147,86.795004 11.669289,86.829287 L 7.4197749,87.786558 C 7.1505209,87.847209 6.996967,87.97098 6.9591128,88.15787 C 6.9314846,88.280947 6.9398769,88.482018 6.9842899,88.761083 L 6.7647902,88.810529 L 6.0725489,85.737533 L 6.2920486,85.688088 C 6.419467,86.089908 6.562646,86.31597 6.7215861,86.366271 C 6.8153989,86.400491 6.9413254,86.3998 7.0993661,86.3642 M 7.9584856,91.923595 C 8.2104337,92.731203 8.6518629,93.259721 9.2827747,93.50915 C 9.5182463,93.5991 9.8195895,93.668505 10.186805,93.717366 L 10.261854,93.957932 L 8.3675846,94.171772 L 6.7996008,89.145675 L 7.0143913,89.078667 C 7.1724189,89.44419 7.3203249,89.646313 7.4581098,89.685037 C 7.5486516,89.713356 7.6827028,89.69982 7.8602639,89.644427 L 12.018607,88.347155 C 12.287806,88.263173 12.434805,88.119893 12.459606,87.917316 C 12.471472,87.794195 12.449185,87.62202 12.392745,87.400791 L 12.607535,87.333783 L 14.154076,92.291147 L 12.427161,92.82989 L 12.360153,92.6151 C 12.898971,92.327581 13.222869,92.015982 13.331849,91.680299 C 13.435088,91.346398 13.377711,90.830057 13.159719,90.131273 C 13.068582,89.839158 12.956805,89.68233 12.824388,89.660791 C 12.765684,89.653961 12.684786,89.666629 12.581693,89.698793 L 10.588437,90.320626 L 10.599158,90.354992 C 10.765334,90.887671 11.015373,91.205633 11.349276,91.308881 C 11.579385,91.38165 11.897225,91.383057 12.302799,91.313101 L 12.372487,91.536483 L 9.4685201,92.44243 L 9.3988319,92.219047 C 9.9748586,91.970204 10.305195,91.669166 10.389841,91.315933 C 10.441851,91.079722 10.410678,90.77833 10.296322,90.411757 L 8.2171502,91.060393 C 7.9823114,91.133652 7.8639505,91.267998 7.8620674,91.463429 C 7.8655913,91.57546 7.8977307,91.728848 7.9584856,91.923595 M 14.941272,94.232793 L 12.651005,98.651829 L 15.168822,97.558384 C 15.515531,97.407809 15.706516,97.230018 15.741777,97.02501 C 15.765513,96.883869 15.735811,96.687444 15.65267,96.435735 L 15.859049,96.346109 L 16.629837,98.120964 L 16.423459,98.21059 C 16.237688,97.918402 16.07268,97.764385 15.928435,97.748537 C 15.824366,97.734854 15.676026,97.76984 15.483413,97.853494 L 10.621136,99.965097 L 10.520754,99.733953 L 13.409026,94.093631 L 10.090461,95.534827 C 9.7547503,95.680618 9.5668791,95.850516 9.5268461,96.044521 C 9.5007114,96.180155 9.5296903,96.389977 9.6137828,96.673986 L 9.4074044,96.763613 L 8.5935949,94.889696 L 8.7999734,94.80007 C 8.9993531,95.138672 9.1790627,95.319011 9.3391027,95.341089 C 9.4431636,95.354768 9.5887526,95.320978 9.7758701,95.239717 L 13.688806,93.540397 C 13.911958,93.090251 14.016146,92.802973 14.001371,92.678562 C 14.000422,92.646267 13.99278,92.613608 13.978446,92.580585 L 14.184824,92.490959 L 14.941272,94.232793 M 13.183067,102.18038 L 17.304307,99.832738 C 16.935979,99.234644 16.521136,98.918541 16.059778,98.884429 C 15.800813,98.866222 15.488531,98.930175 15.122932,99.076291 L 14.993745,98.849505 L 16.578968,97.977565 L 19.251806,102.66968 L 17.688857,103.58072 L 17.55967,103.35393 C 18.096053,102.9379 18.351903,102.50214 18.32722,102.04665 C 18.317903,101.77574 18.217487,101.46006 18.025974,101.09961 L 13.904733,103.44725 C 13.597137,103.62247 13.430967,103.77927 13.406224,103.91767 C 13.38372,104.04787 13.455592,104.28313 13.621839,104.62347 L 13.426334,104.73483 L 11.835996,101.94303 L 12.031501,101.83166 C 12.264728,102.16835 12.452022,102.35168 12.593382,102.38164 C 12.715404,102.4019 12.911965,102.33481 13.183067,102.18038 M 15.429224,106.24282 L 19.023469,103.7819 C 19.251198,103.62598 19.345485,103.44507 19.306331,103.23919 C 19.281527,103.11801 19.20537,102.94837 19.07786,102.73027 L 19.263513,102.60315 L 21.043106,105.2023 L 20.857453,105.32941 C 20.598536,104.98313 20.374348,104.82031 20.184887,104.84096 C 20.088453,104.84881 19.97588,104.8968 19.847166,104.98493 L 16.252921,107.44586 C 16.025185,107.60178 15.928288,107.77356 15.962232,107.9612 C 15.982078,108.08577 16.064233,108.26948 16.208699,108.51234 L 16.023046,108.63946 L 14.243453,106.04031 L 14.429106,105.9132 C 14.696089,106.23941 14.912717,106.3965 15.078992,106.38446 C 15.178809,106.38156 15.295553,106.33435 15.429224,106.24282 M 20.188477,113.48334 L 20.014665,113.62622 L 18.162943,111.37363 L 18.336754,111.23075 C 18.430669,111.31665 18.498584,111.38509 18.540497,111.43608 C 18.729666,111.63786 18.897585,111.68623 19.044258,111.5812 C 19.183303,111.46689 19.410848,111.1012 19.726892,110.48412 L 18.440973,108.91982 L 18.0841,109.03842 C 17.625982,109.18977 17.357527,109.29783 17.278734,109.3626 C 17.144318,109.47309 17.150015,109.65482 17.295822,109.90778 C 17.335258,109.9841 17.39076,110.07051 17.462329,110.16702 L 17.288518,110.3099 L 16.128333,108.89856 L 16.302145,108.75568 C 16.483184,108.90977 16.665932,108.9809 16.850389,108.96908 C 17.000239,108.9624 17.275333,108.89549 17.67567,108.76834 L 22.754386,107.17986 L 22.914411,107.37452 L 20.531911,111.93111 C 20.206597,112.55581 20.043313,112.96188 20.042061,113.14933 C 20.044414,113.25613 20.085599,113.35819 20.165616,113.45553 L 20.188477,113.48334 M 18.797846,108.80121 L 19.912309,110.15694 L 21.02452,108.06595 L 18.797846,108.80121 M 27.740094,112.46733 C 27.970457,112.67775 28.198976,112.98805 28.425654,113.39824 C 28.495169,113.52675 28.552081,113.61123 28.59639,113.6517 C 28.689416,113.73667 28.806257,113.73775 28.946913,113.65494 C 28.967905,113.64974 28.990736,113.63809 29.015406,113.61999 L 29.214763,113.80208 L 27.897648,115.2441 L 27.711582,115.07415 C 28.126509,114.20172 28.149565,113.49143 27.780751,112.94327 C 27.716804,112.84424 27.640532,112.75426 27.551935,112.67333 C 27.197516,112.34962 26.84797,112.27413 26.503295,112.44687 C 26.399444,112.49829 26.303009,112.57273 26.213992,112.67019 C 26.027852,112.87398 25.962499,113.11902 26.017933,113.4053 C 26.042173,113.56559 26.107056,113.77925 26.212582,114.04628 L 26.746348,115.42362 C 26.905202,115.83688 26.897319,116.27256 26.7227,116.73064 C 26.639046,116.94678 26.522362,117.1368 26.372649,117.30072 C 25.92349,117.79247 25.379994,117.9827 24.74216,117.87143 C 24.284246,117.79447 23.851504,117.56986 23.443931,117.19759 C 23.19141,116.96694 22.9496,116.6445 22.718499,116.23027 C 22.639732,116.08519 22.571553,115.98635 22.513962,115.93374 C 22.425358,115.85282 22.306685,115.85819 22.157944,115.94986 C 22.141375,115.9591 22.124805,115.96835 22.108236,115.97759 L 21.915524,115.80157 L 23.414728,114.1602 L 23.60744,114.33622 C 23.140495,115.18552 23.023428,115.88308 23.256241,116.42889 C 23.342122,116.63735 23.478096,116.82656 23.664165,116.99651 C 24.036296,117.33641 24.412232,117.43193 24.791972,117.28309 C 24.942245,117.22532 25.076057,117.1322 25.193406,117.00373 C 25.387632,116.79108 25.459054,116.5394 25.407675,116.24868 C 25.374183,116.07182 25.297457,115.8311 25.177497,115.5265 L 24.926495,114.90718 C 24.582194,114.05638 24.532519,113.38124 24.77747,112.88175 C 24.847617,112.74267 24.939342,112.61111 25.052645,112.48706 C 25.5544,111.93772 26.125348,111.74412 26.765493,111.90625 C 27.10068,111.99301 27.425547,112.18004 27.740094,112.46733 M 29.015791,118.09151 L 28.009701,119.42944 C 27.80776,119.69798 27.718109,119.89707 27.740747,120.0267 C 27.762192,120.14792 27.896965,120.32809 28.145065,120.56721 L 28.009838,120.74704 L 25.607317,118.9404 L 25.742544,118.76057 C 25.862467,118.82073 25.927225,118.85441 25.936816,118.86162 C 26.169452,118.99151 26.365641,119.00016 26.525384,118.88756 C 26.615458,118.82768 26.721799,118.71621 26.844406,118.55317 L 29.235221,115.37378 C 29.45158,115.08606 29.533462,114.86236 29.480868,114.70269 C 29.442614,114.58385 29.325201,114.4355 29.128629,114.25764 L 29.263856,114.07782 L 31.58006,115.81954 C 32.486394,116.50109 32.885727,117.18799 32.77806,117.88025 C 32.738159,118.113 32.638879,118.33488 32.48022,118.54588 C 32.097971,119.0542 31.577522,119.25214 30.918869,119.13971 C 30.836076,119.13 30.752099,119.1119 30.666938,119.08539 C 30.386228,119.00944 30.031865,118.82179 29.603847,118.52245 C 29.461169,118.42267 29.26515,118.27902 29.015791,118.09151 M 29.205108,117.83974 C 29.703831,118.21477 30.091225,118.37846 30.36729,118.33081 C 30.626542,118.28554 30.909428,118.0591 31.215948,117.65148 C 31.634244,117.09521 31.748808,116.64836 31.55964,116.31091 C 31.485399,116.18002 31.366759,116.05327 31.203719,115.93066 C 30.963941,115.75037 30.780949,115.74413 30.654743,115.91197 L 29.205108,117.83974 M 32.686873,123.52419 C 33.55208,124.04137 34.370661,124.05185 35.142617,123.55562 C 35.184761,123.53189 35.342526,123.41998 35.615912,123.2199 L 35.839939,123.35382 L 34.475,124.91809 L 30.009893,122.24908 L 30.125335,122.05595 C 30.479566,122.21177 30.719402,122.26076 30.844844,122.20293 C 30.931214,122.16369 31.022115,122.06424 31.117548,121.90459 L 33.352499,118.16564 C 33.497182,117.92359 33.51486,117.72445 33.405531,117.56822 C 33.335383,117.46338 33.205537,117.34732 33.015995,117.22004 L 33.131437,117.02691 L 35.827496,118.63848 L 35.712054,118.8316 C 35.342309,118.63157 35.082879,118.55688 34.933764,118.60754 C 34.809325,118.652 34.667068,118.80813 34.506994,119.07593 L 32.327455,122.72217 C 32.201236,122.93333 32.205137,123.11391 32.339157,123.26392 C 32.406163,123.33892 32.522068,123.42568 32.686873,123.52419 M 37.996259,126.29071 C 38.76664,126.64032 39.45489,126.66274 40.061012,126.35797 C 40.284886,126.24213 40.537278,126.06346 40.818191,125.82196 L 41.047667,125.9261 L 39.94625,127.48201 L 35.151835,125.30628 L 35.244816,125.10139 C 35.622777,125.22679 35.872066,125.25097 35.992685,125.17393 C 36.07409,125.12521 36.153225,125.01617 36.23009,124.84679 L 38.030184,120.88013 C 38.146716,120.62334 38.137652,120.41827 38.002993,120.26491 C 37.919015,120.17409 37.775696,120.07611 37.573037,119.97096 L 37.666017,119.76607 L 42.394866,121.91205 L 41.647306,123.55936 L 41.442417,123.46638 C 41.586547,122.8729 41.569636,122.42377 41.391686,122.11899 C 41.211244,121.81967 40.787739,121.51877 40.121171,121.21627 C 39.842517,121.08982 39.651079,121.06883 39.546857,121.15331 C 39.502682,121.19257 39.458282,121.26137 39.413656,121.35971 L 38.550801,123.26109 L 38.583583,123.27596 C 39.091705,123.50655 39.495426,123.53163 39.794748,123.35119 C 40.002231,123.22792 40.214864,122.99167 40.432646,122.64245 L 40.645731,122.73915 L 39.388641,125.50926 L 39.175556,125.41256 C 39.373315,124.81706 39.368572,124.37016 39.161327,124.07185 C 39.019682,123.87579 38.774023,123.69842 38.424348,123.53973 L 37.524301,125.52307 C 37.42264,125.74708 37.444102,125.92483 37.588685,126.05634 C 37.674632,126.12828 37.81049,126.20641 37.996259,126.29071 M 44.305072,122.57241 L 46.135176,127.20101 L 46.963156,124.58386 C 47.077167,124.22347 47.06842,123.96268 46.936917,123.8015 C 46.846027,123.69095 46.678353,123.58441 46.433894,123.48189 L 46.501762,123.26737 L 48.346638,123.85103 L 48.278771,124.06555 C 47.936404,124.01388 47.711898,124.03725 47.605253,124.13566 C 47.526615,124.20518 47.455627,124.34005 47.392291,124.54027 L 45.793339,129.59437 L 45.553076,129.51836 L 43.194241,123.63693 L 42.102936,127.08642 C 41.992537,127.43537 41.997373,127.68862 42.117443,127.84618 C 42.202604,127.95493 42.37991,128.07081 42.649359,128.19381 L 42.581492,128.40833 L 40.633646,127.7921 L 40.701514,127.57758 C 41.087827,127.64945 41.34184,127.63227 41.463554,127.52603 C 41.542184,127.45651 41.612267,127.32451 41.673801,127.13001 L 42.960564,123.0627 C 42.767479,122.59886 42.619162,122.33168 42.515612,122.26115 C 42.490626,122.24067 42.460973,122.22499 42.426652,122.21413 L 42.494519,121.99961 L 44.305072,122.57241 M 47.729122,129.06802 L 48.526914,124.70334 C 48.573301,124.44955 48.512024,124.26756 48.343082,124.15738 C 48.245471,124.09075 48.097947,124.03024 47.90051,123.97585 L 47.940966,123.75452 L 50.641229,124.24808 C 51.880689,124.47464 52.718712,125.01208 53.155301,125.8604 C 53.444572,126.41343 53.522863,127.05293 53.390174,127.7789 C 53.207846,128.77637 52.725525,129.49638 51.943209,129.93893 C 51.284384,130.30646 50.51821,130.41039 49.644686,130.25073 L 46.847036,129.73936 L 46.887492,129.51803 C 47.333394,129.58123 47.603974,129.46906 47.699231,129.1815 C 47.711606,129.14716 47.721569,129.10934 47.729122,129.06802 M 51.825423,127.63012 C 52.077863,126.24901 51.876954,125.31262 51.222698,124.82097 C 51.034456,124.68288 50.819342,124.59171 50.577355,124.54747 C 50.229121,124.48383 50.036127,124.55529 49.998371,124.76186 L 49.166596,129.31247 C 49.118047,129.57807 49.162696,129.75092 49.300545,129.83101 C 49.367053,129.86756 49.462282,129.89717 49.586231,129.91982 C 50.725355,130.12804 51.46312,129.41202 51.799531,127.77178 C 51.808156,127.72456 51.816787,127.67734 51.825423,127.63012 M 56.282124,130.78135 C 57.126587,130.83226 57.777318,130.607 58.234319,130.10559 C 58.401945,129.91733 58.573726,129.6602 58.749665,129.3342 L 59.001209,129.34936 L 58.529228,131.19631 L 53.273767,130.87953 L 53.287304,130.65494 C 53.685113,130.63684 53.926557,130.57025 54.011637,130.45516 C 54.070231,130.38055 54.105124,130.25041 54.116316,130.06475 L 54.378403,125.71664 C 54.395369,125.43515 54.313548,125.24689 54.13294,125.15185 C 54.022034,125.09708 53.853149,125.05685 53.626285,125.03114 L 53.639822,124.80655 L 58.823414,125.119 L 58.714572,126.92472 L 58.48998,126.91118 C 58.412281,126.30542 58.235833,125.89205 57.960634,125.67109 C 57.685064,125.45612 57.181945,125.32662 56.451275,125.28257 C 56.145827,125.26416 55.959548,125.31305 55.89244,125.42921 C 55.865232,125.48168 55.84838,125.56181 55.841884,125.66961 L 55.716256,127.75382 L 55.752191,127.75599 C 56.309177,127.78957 56.695155,127.66857 56.910128,127.393 C 57.059788,127.20367 57.173844,126.90699 57.252298,126.50298 L 57.485874,126.51706 L 57.302847,129.55354 L 57.069271,129.53946 C 57.04093,128.91263 56.876641,128.49699 56.576401,128.29255 C 56.373998,128.16014 56.081146,128.08238 55.697845,128.05927 L 55.566801,130.23332 C 55.551998,130.47888 55.635624,130.6372 55.817679,130.70828 C 55.923676,130.74472 56.078491,130.76908 56.282124,130.78135 M 61.354135,130.05721 L 61.096126,125.32123 C 60.39647,125.38339 59.928278,125.6132 59.69155,126.01066 C 59.559513,126.23418 59.477142,126.54211 59.444437,126.93447 L 59.183824,126.94867 L 59.112378,125.14088 L 64.504383,124.84713 L 64.620762,126.65247 L 64.360148,126.66667 C 64.22773,126.00089 63.952277,125.57725 63.533789,125.39574 C 63.287286,125.28299 62.960012,125.23171 62.551968,125.24192 L 62.809976,129.9779 C 62.829229,130.33137 62.895225,130.55011 63.007965,130.6341 C 63.114379,130.71243 63.356961,130.75329 63.735711,130.75669 L 63.747951,130.98136 L 60.539708,131.15614 L 60.527469,130.93147 C 60.932904,130.87333 61.180614,130.78773 61.270599,130.67467 C 61.343259,130.57457 61.371105,130.36875 61.354135,130.05721 M 70.391461,129.66691 C 71.218253,129.48767 71.783882,129.09492 72.088352,128.48865 C 72.198857,128.2621 72.294748,127.96811 72.376025,127.60668 L 72.622304,127.55329 L 72.667086,129.45907 L 67.521606,130.57453 L 67.473936,130.35464 C 67.852048,130.2297 68.066507,130.10032 68.117313,129.96652 C 68.153561,129.87885 68.151982,129.74413 68.112576,129.56235 L 67.189697,125.30524 C 67.129952,125.02964 67.000292,124.8705 66.800717,124.82781 C 66.679136,124.80506 66.505663,124.81197 66.280295,124.84854 L 66.232626,124.62864 L 71.30774,123.52844 L 71.691002,125.29637 L 71.47111,125.34404 C 71.232576,124.78182 70.950969,124.43153 70.626291,124.29317 C 70.302876,124.16069 69.78348,124.17199 69.068099,124.32706 C 68.769044,124.3919 68.602911,124.48931 68.569697,124.61929 C 68.557682,124.67716 68.563115,124.75886 68.585998,124.8644 L 69.028369,126.905 L 69.063552,126.89738 C 69.608883,126.77916 69.947793,126.55834 70.080284,126.23493 C 70.1732,126.01219 70.202826,125.69573 70.169162,125.28555 L 70.39785,125.23597 L 71.04234,128.20892 L 70.813652,128.25849 C 70.616944,127.66264 70.34643,127.30688 70.002109,127.1912 C 69.77145,127.11842 69.468481,127.1227 69.0932,127.20406 L 69.554639,129.33261 C 69.606756,129.57303 69.73006,129.70285 69.924551,129.72208 C 70.036453,129.72852 70.192089,129.71013 70.391461,129.66691 M 75.076556,127.59626 L 73.542705,123.10812 C 72.886189,123.35786 72.497954,123.70613 72.378,124.15292 C 72.311591,124.40389 72.315899,124.72262 72.390923,125.10913 L 72.143948,125.19353 L 71.58448,123.47301 L 76.69431,121.72669 L 77.29636,123.43266 L 77.049385,123.51706 C 76.74122,122.91223 76.361116,122.57926 75.909071,122.51816 C 75.641217,122.47655 75.312314,122.51604 74.922359,122.63662 L 76.45621,127.12475 C 76.570688,127.45973 76.693579,127.65234 76.824885,127.70257 C 76.948565,127.74908 77.193132,127.72256 77.558585,127.62303 L 77.631348,127.83594 L 74.590999,128.875 L 74.518236,128.66209 C 74.892668,128.49608 75.107843,128.34645 75.163759,128.21321 C 75.20652,128.09714 75.177453,127.89149 75.076556,127.59626 M 84.298048,124.45696 C 84.838086,124.16904 85.238752,123.63245 85.500047,122.84719 C 85.534998,122.74696 85.569603,122.63332 85.603861,122.50626 L 85.947968,122.57778 C 85.838489,123.01012 85.74315,123.31593 85.661953,123.49521 C 85.385857,124.12518 84.935434,124.6067 84.310684,124.93978 C 83.452968,125.39707 82.60978,125.48624 81.781116,125.2073 C 81.017389,124.94813 80.426642,124.42675 80.008872,123.64316 C 79.571346,122.82251 79.474583,121.99697 79.718585,121.16653 C 79.965762,120.3548 80.478498,119.74147 81.256793,119.32652 C 81.61682,119.13457 82.061896,119.01287 82.592023,118.96141 C 82.824965,118.93922 82.981146,118.90695 83.060566,118.8646 C 83.182338,118.79968 83.237594,118.65463 83.226335,118.42945 C 83.222808,118.39734 83.219108,118.35851 83.215234,118.31298 L 83.429663,118.19865 L 84.420452,120.05703 L 84.221907,120.16289 C 83.318473,119.48864 82.529335,119.23282 81.854489,119.39543 C 81.729189,119.42824 81.610947,119.47428 81.499763,119.53355 C 80.763824,119.92592 80.569776,120.66513 80.917618,121.75117 C 81.020275,122.08401 81.174635,122.44368 81.380696,122.83018 C 82.261396,124.48207 83.233846,125.02433 84.298048,124.45696 M 85.981126,116.38372 C 86.731383,115.85473 87.531483,115.67235 88.381428,115.83657 C 89.202829,115.99156 89.87457,116.43928 90.396655,117.17973 C 90.953307,117.96922 91.146345,118.79484 90.97577,119.6566 C 90.811852,120.45493 90.364573,121.11168 89.633934,121.62685 C 88.839541,122.18696 88.012188,122.37755 87.151873,122.19861 C 86.361904,122.03614 85.709337,121.58958 85.194169,120.85894 C 84.634057,120.06455 84.443471,119.2372 84.62241,118.37688 C 84.787772,117.57019 85.240677,116.90581 85.981126,116.38372 M 86.144916,116.63164 C 85.507443,117.08112 85.409163,117.81114 85.850076,118.82172 C 86.011066,119.18541 86.241962,119.58056 86.542763,120.00717 C 87.420966,121.2527 88.239717,121.78397 88.999019,121.60099 C 89.161087,121.56013 89.315676,121.48784 89.462788,121.38412 C 90.090451,120.94156 90.195206,120.23633 89.777052,119.26843 C 89.629889,118.92437 89.414552,118.55128 89.13104,118.14918 C 88.332358,117.01644 87.578077,116.43604 86.868196,116.40798 C 86.606673,116.4015 86.36558,116.47606 86.144916,116.63164 M 89.831598,113.55793 L 94.752336,114.30595 L 92.907493,112.27332 C 92.653448,111.99343 92.423696,111.86974 92.218236,111.90226 C 92.076956,111.92515 91.900508,112.01643 91.68889,112.17608 L 91.537673,112.00947 L 92.970509,110.709 L 93.121726,110.87561 C 92.904772,111.14546 92.811979,111.35122 92.843346,111.4929 C 92.863846,111.59585 92.944664,111.72506 93.0858,111.88056 L 96.648465,115.80586 L 96.461863,115.97523 L 90.192421,115.05357 L 92.623985,117.73264 C 92.869964,118.00366 93.091241,118.12694 93.287816,118.10248 C 93.424652,118.08362 93.614019,117.98872 93.855917,117.81779 L 94.007134,117.9844 L 92.494325,119.35744 L 92.343108,119.19084 C 92.599637,118.89318 92.712629,118.66504 92.682084,118.5064 C 92.661583,118.40346 92.582781,118.27646 92.445678,118.1254 L 89.57861,114.9665 C 89.08062,114.89991 88.775097,114.89361 88.662041,114.9476 C 88.631765,114.95888 88.603297,114.97661 88.576636,115.0008 L 88.425419,114.83419 L 89.831598,113.55793 M 94.128609,109.13787 C 94.336877,108.90556 94.645042,108.67417 95.053107,108.44369 C 95.180966,108.37298 95.264921,108.31529 95.30497,108.27061 C 95.389079,108.1768 95.389074,108.05995 95.304957,107.92007 C 95.299566,107.89913 95.287703,107.8764 95.269369,107.8519 L 95.449598,107.65086 L 96.903792,108.95452 L 96.735577,109.14216 C 95.859333,108.73536 95.14886,108.7189 94.604156,109.09279 C 94.505724,109.15766 94.416455,109.23476 94.33635,109.32411 C 94.015945,109.68152 93.94371,110.03175 94.119643,110.37481 C 94.172027,110.47817 94.24736,110.57391 94.345644,110.66202 C 94.551155,110.84626 94.796788,110.90933 95.082544,110.85124 C 95.242601,110.82551 95.455648,110.75865 95.721685,110.65065 L 97.094008,110.10411 C 97.505774,109.94142 97.941501,109.94525 98.40119,110.11561 C 98.618093,110.19725 98.809194,110.31217 98.974496,110.46035 C 99.470394,110.90492 99.665671,111.44663 99.560328,112.08547 C 99.487632,112.54408 99.267051,112.97889 98.898583,113.3899 C 98.670291,113.64455 98.35011,113.88935 97.938039,114.12429 C 97.793698,114.2044 97.695495,114.27349 97.643429,114.33157 C 97.563326,114.42092 97.569801,114.53954 97.662852,114.68742 C 97.672249,114.70391 97.681647,114.72039 97.691045,114.73687 L 97.516823,114.93121 L 95.861589,113.44732 L 96.035811,113.25298 C 96.889414,113.71202 97.588029,113.8226 98.131658,113.58472 C 98.339312,113.49691 98.527246,113.35918 98.695462,113.17154 C 99.031888,112.79627 99.123918,112.41946 98.971552,112.04112 C 98.91239,111.89139 98.81803,111.75845 98.688472,111.6423 C 98.474027,111.45006 98.221693,111.38098 97.931468,111.43506 C 97.754929,111.47019 97.514924,111.54915 97.211453,111.67193 L 96.594497,111.92868 C 95.746935,112.28087 95.07228,112.33682 94.570532,112.09652 C 94.43081,112.02766 94.298402,111.93716 94.173307,111.82502 C 93.619332,111.32839 93.420434,110.75926 93.576611,110.11764 C 93.660251,109.78166 93.84425,109.45507 94.128609,109.13787 M 102.60655,108.08056 C 102.96682,107.58584 103.09317,106.9282 102.98562,106.10763 C 102.97333,106.0022 102.95488,105.88484 102.93026,105.75557 L 103.27108,105.66977 C 103.36124,106.10655 103.4089,106.42331 103.41407,106.62005 C 103.44054,107.30735 103.24539,107.93716 102.82861,108.50947 C 102.25641,109.29521 101.53664,109.74338 100.66932,109.854 C 99.869045,109.95407 99.109996,109.74274 98.392167,109.21999 C 97.64039,108.67251 97.193086,107.97194 97.050253,107.11826 C 96.918446,106.28004 97.112149,105.50444 97.631363,104.79145 C 97.871547,104.46165 98.218907,104.15793 98.673442,103.8803 C 98.873352,103.75868 98.999796,103.66149 99.052776,103.58873 C 99.134015,103.47718 99.120438,103.32256 99.012043,103.12486 C 98.994858,103.0975 98.974587,103.06419 98.95123,103.0249 L 99.09428,102.82847 L 100.7967,104.06823 L 100.66424,104.25012 C 99.557145,104.03768 98.735472,104.15186 98.199221,104.59264 C 98.100798,104.67684 98.014499,104.76987 97.940323,104.87171 C 97.449366,105.5459 97.597333,106.29569 98.384225,107.12109 C 98.621835,107.37577 98.917671,107.63204 99.271733,107.88987 C 100.78499,108.99189 101.8966,109.05545 102.60655,108.08056 M 104.09669,104.75778 L 100.36566,102.50964 C 100.12926,102.3672 99.925539,102.35653 99.754495,102.47763 C 99.654551,102.5505 99.531839,102.69022 99.38636,102.89677 L 99.193641,102.78065 L 100.81936,100.08258 L 101.01208,100.19871 C 100.80454,100.57802 100.7495,100.84957 100.84694,101.01336 C 100.89412,101.09783 100.98452,101.18032 101.11813,101.26083 L 104.84917,103.50896 C 105.08557,103.65141 105.28207,103.66824 105.43869,103.55946 C 105.54377,103.48969 105.6768,103.33867 105.83775,103.10642 L 106.03047,103.22254 L 104.40476,105.92061 L 104.21204,105.80448 C 104.39796,105.42616 104.45093,105.16387 104.37095,105.0176 C 104.32687,104.928 104.23545,104.84139 104.09669,104.75778 M 107.31809,100.14707 C 107.69375,99.389057 107.73962,98.701971 107.45569,98.085813 C 107.34755,97.85812 107.17759,97.599784 106.94581,97.310803 L 107.05771,97.085009 L 108.57517,98.238823 L 106.23727,102.95629 L 106.03567,102.85638 C 106.17388,102.48291 106.20655,102.23459 106.13366,102.11142 C 106.08775,102.0284 105.98147,101.94559 105.81481,101.863 L 101.91181,99.928738 C 101.65914,99.803521 101.45388,99.805589 101.29602,99.934943 C 101.20239,100.01578 101.09958,100.15567 100.98758,100.35463 L 100.78598,100.25472 L 103.09191,95.601767 L 104.71278,96.405044 L 104.61287,96.606645 C 104.02465,96.44237 103.5752,96.443961 103.26453,96.611418 C 102.95924,96.781553 102.64407,97.194554 102.31903,97.850424 C 102.18315,98.124606 102.15565,98.315218 102.23653,98.422259 C 102.27426,98.467746 102.34151,98.514465 102.43827,98.562418 L 104.30913,99.489583 L 104.32511,99.457327 C 104.57289,98.95736 104.61172,98.554728 104.44159,98.24943 C 104.32546,98.037866 104.0966,97.817304 103.755,97.587744 L 103.85891,97.378079 L 106.58456,98.728863 L 106.48065,98.938528 C 105.89224,98.720585 105.44543,98.710092 105.14023,98.907048 C 104.93946,99.041928 104.75382,99.281399 104.58331,99.625461 L 106.5348,100.59259 C 106.75522,100.70183 106.9336,100.68644 107.06996,100.54642 C 107.14479,100.46298 107.22751,100.32986 107.31809,100.14707 M 103.86132,93.655299 L 108.56925,92.040159 L 105.99298,91.092606 C 105.63821,90.96213 105.3773,90.958864 105.21024,91.08281 C 105.09562,91.168516 104.98148,91.331109 104.86782,91.57059 L 104.65665,91.492922 L 105.3246,89.676863 L 105.53576,89.754531 C 105.46839,90.094157 105.48141,90.3195 105.5748,90.430561 C 105.64063,90.512317 105.77209,90.589436 105.96918,90.661919 L 110.94434,92.491784 L 110.85735,92.728295 L 104.87359,94.813946 L 108.2692,96.062852 C 108.6127,96.189194 108.86591,96.196019 109.02882,96.083328 C 109.14138,96.003262 109.2653,95.831477 109.40057,95.567974 L 109.61174,95.645642 L 108.90651,97.563063 L 108.69534,97.485395 C 108.78492,97.102799 108.77944,96.848264 108.67892,96.72179 C 108.6131,96.640043 108.48445,96.563959 108.29299,96.493539 L 104.28921,95.020948 C 103.81698,95.192481 103.54326,95.328344 103.46804,95.428539 C 103.44643,95.452555 103.42941,95.481455 103.41697,95.51524 L 103.2058,95.437572 L 103.86132,93.655299 M 110.62263,89.119641 L 106.02194,87.966518 C 105.87455,88.653293 105.95573,89.168488 106.26548,89.512103 C 106.43999,89.704298 106.70983,89.873993 107.075,90.021188 L 107.01154,90.274357 L 105.26339,89.808362 L 106.57624,84.570383 L 108.33534,84.992729 L 108.27188,85.245898 C 107.59671,85.175647 107.11059,85.313599 106.81351,85.659754 C 106.63294,85.861926 106.48724,86.159429 106.37641,86.552264 L 110.9771,87.705386 C 111.32048,87.791455 111.54894,87.793048 111.6625,87.710165 C 111.76878,87.631652 111.87951,87.411982 111.99469,87.051154 L 112.21294,87.105856 L 111.43179,90.222453 L 111.21354,90.167751 C 111.27781,89.763242 111.26924,89.501299 111.18782,89.38192 C 111.11366,89.282923 110.92527,89.195497 110.62263,89.119641 M 111.81143,84.630286 L 107.51471,83.914047 C 107.24248,83.868667 107.04914,83.933764 106.93471,84.109337 C 106.86862,84.213895 106.80598,84.388978 106.74679,84.634587 L 106.52485,84.597591 L 107.04279,81.490464 L 107.26473,81.52746 C 107.21146,81.956544 107.26028,82.229283 107.41119,82.345678 C 107.48615,82.40684 107.60057,82.450244 107.75445,82.475891 L 112.05116,83.19213 C 112.3234,83.237514 112.5123,83.180802 112.61785,83.021993 C 112.68986,82.918426 112.75792,82.72904 112.82205,82.453835 L 113.04398,82.490831 L 112.52604,85.597958 L 112.3041,85.560962 C 112.33765,85.14076 112.29031,84.877391 112.16209,84.770857 C 112.08811,84.703781 111.97122,84.656924 111.81143,84.630286 M 113.41788,76.112969 L 113.64214,76.131296 L 113.40462,79.037607 L 113.18037,79.01928 C 113.17269,78.892236 113.17154,78.795822 113.17692,78.730038 C 113.18146,78.453492 113.09451,78.301907 112.91609,78.275282 C 112.73669,78.260624 112.3188,78.364933 111.66244,78.588208 L 111.49749,80.606479 L 111.83633,80.76962 C 112.27066,80.979697 112.53866,81.088889 112.64032,81.097196 C 112.81374,81.11137 112.9361,80.97689 113.0074,80.693755 C 113.03218,80.611502 113.05245,80.510819 113.06821,80.391704 L 113.29246,80.410031 L 113.14364,82.23096 L 112.91939,82.212634 C 112.89659,81.97599 112.81484,81.797739 112.67413,81.67788 C 112.56186,81.578405 112.31773,81.435044 111.94173,81.247794 L 107.18886,78.854708 L 107.20939,78.603545 L 112.09114,76.988812 C 112.75946,76.766516 113.15929,76.588492 113.29062,76.454739 C 113.36324,76.3764 113.40469,76.274437 113.41495,76.148849 L 113.41788,76.112969 M 111.15866,80.443338 L 111.30161,78.694169 L 109.04783,79.422011 L 111.15866,80.443338"
       id="text2783" />
  </g>
</svg>
